<?xml version="1.0" encoding="iso-8859-1"?>
<!-- Generator: Adobe Illustrator 18.0.0, SVG Export Plug-In . SVG Version: 6.00 Build 0)  -->
<!DOCTYPE svg PUBLIC "-//W3C//DTD SVG 1.1//EN" "http://www.w3.org/Graphics/SVG/1.1/DTD/svg11.dtd">
<svg version="1.1" id="Capa_1" xmlns="http://www.w3.org/2000/svg" xmlns:xlink="http://www.w3.org/1999/xlink" x="0px" y="0px"
	 viewBox="0 0 58 58" style="enable-background:new 0 0 58 58;" xml:space="preserve">
<path d="M32,0c-1.021,0-2.026,0.076-3.015,0.21C27.953,0.072,26.972,0,26,0c-4.883,0-9.449,1.572-13.33,4.29
	c-0.001,0.001-0.003,0.002-0.004,0.003c-1.969,1.379-3.758,3.055-5.326,4.97C7.293,9.306,7.258,9.356,7.22,9.407
	c-1.484,1.838-2.76,3.896-3.792,6.122c-0.027,0.05-0.051,0.1-0.07,0.155c-0.71,1.556-1.303,3.191-1.759,4.895
	c-0.045,0.096-0.065,0.201-0.078,0.311C0.861,23.465,0.5,26.185,0.5,29c0,4.403,0.871,8.577,2.422,12.319
	C2.936,41.361,2.95,41.4,2.97,41.439c0.928,2.214,2.097,4.273,3.466,6.136c0.037,0.051,0.067,0.105,0.113,0.148
	c1.389,1.864,2.982,3.524,4.738,4.94c0.051,0.057,0.113,0.099,0.176,0.143C15.59,56.076,20.6,58,26,58
	c0.972,0,1.953-0.072,2.985-0.21C29.974,57.924,30.979,58,32,58c14.061,0,25.5-13.009,25.5-29S46.061,0,32,0z M49.217,20.202
	c0.521-0.182,1.091,0.099,1.271,0.621c0.223,0.65,0.42,1.317,0.587,1.982c0.135,0.536-0.19,1.079-0.727,1.213
	c-0.082,0.021-0.163,0.03-0.244,0.03c-0.447,0-0.855-0.303-0.969-0.757c-0.153-0.61-0.335-1.222-0.54-1.819
	C48.416,20.95,48.694,20.381,49.217,20.202z M38.703,8.848c0.248-0.493,0.847-0.693,1.343-0.443
	c0.616,0.311,1.226,0.662,1.812,1.043c0.463,0.301,0.594,0.921,0.292,1.384c-0.191,0.294-0.512,0.454-0.839,0.454
	c-0.188,0-0.376-0.052-0.545-0.162c-0.524-0.342-1.069-0.656-1.62-0.933C38.652,9.943,38.454,9.341,38.703,8.848z M34.926,7.703
	c-0.059,0.51-0.491,0.885-0.992,0.885c-0.038,0-0.077-0.002-0.116-0.007C33.217,8.511,32.605,8.476,32,8.476
	c-0.553,0-1.021-0.448-1.021-1s0.426-1,0.979-1H32c0.682,0,1.371,0.04,2.048,0.119C34.597,6.658,34.989,7.155,34.926,7.703z
	 M26.49,9.475c-0.577,0.216-1.152,0.469-1.708,0.753c-0.146,0.074-0.301,0.109-0.454,0.109c-0.364,0-0.715-0.199-0.892-0.545
	c-0.251-0.492-0.056-1.094,0.436-1.346c0.624-0.318,1.27-0.603,1.917-0.845c0.521-0.195,1.094,0.069,1.287,0.586
	C27.27,8.705,27.007,9.281,26.49,9.475z M21.815,47.142c0.303-0.461,0.923-0.591,1.385-0.289c0.521,0.342,1.066,0.657,1.618,0.938
	c0.493,0.25,0.689,0.852,0.439,1.344c-0.176,0.347-0.527,0.547-0.893,0.547c-0.152,0-0.307-0.035-0.451-0.108
	c-0.618-0.313-1.227-0.666-1.81-1.048C21.643,48.224,21.514,47.604,21.815,47.142z M32.086,51.524H32
	c-0.7,0-1.405-0.042-2.096-0.124c-0.548-0.066-0.939-0.563-0.874-1.112c0.065-0.548,0.55-0.931,1.112-0.875
	c0.61,0.073,1.236,0.11,1.857,0.11c0.553,0,1.043,0.448,1.043,1S32.639,51.524,32.086,51.524z M5.428,42h3.788
	c0.157,0.354,0.318,0.705,0.487,1.051c0.073,0.149,0.149,0.295,0.224,0.442c0.205,0.402,0.418,0.798,0.639,1.188
	c0.082,0.145,0.161,0.292,0.245,0.435c0.177,0.3,0.362,0.592,0.548,0.884H7.773C6.891,44.754,6.109,43.415,5.428,42z M4.968,17
	h3.827c-0.175,0.437-0.341,0.879-0.498,1.327c-0.043,0.124-0.087,0.247-0.129,0.371C8.024,19.128,7.89,19.562,7.763,20H3.856
	C4.175,18.969,4.547,17.969,4.968,17z M8.525,11h3.503c-0.122,0.175-0.245,0.349-0.363,0.527c-0.295,0.443-0.58,0.895-0.853,1.357
	c-0.084,0.143-0.163,0.29-0.245,0.435c-0.221,0.39-0.434,0.786-0.639,1.188c-0.075,0.147-0.151,0.293-0.224,0.442
	C9.695,14.966,9.686,14.983,9.677,15H5.929C6.686,13.573,7.558,12.238,8.525,11z M14.167,29.022c0,0.552-0.447,0.999-1,0.999
	c-0.527,0-0.96-0.409-0.997-0.927L12.166,29c0-0.676,0.027-1.361,0.08-2.036c0.044-0.551,0.537-0.955,1.075-0.918
	c0.551,0.043,0.962,0.525,0.919,1.076c-0.048,0.604-0.072,1.215-0.074,1.819L14.167,29.022z M13.644,33.94
	c0.532-0.135,1.078,0.192,1.212,0.729c0.152,0.611,0.332,1.224,0.536,1.82c0.179,0.522-0.101,1.091-0.623,1.27
	c-0.107,0.037-0.216,0.054-0.323,0.054c-0.416,0-0.805-0.262-0.946-0.677c-0.222-0.649-0.419-1.317-0.585-1.983
	C12.781,34.616,13.107,34.073,13.644,33.94z M15.378,21.551c-0.142,0.417-0.53,0.679-0.947,0.679c-0.106,0-0.215-0.018-0.321-0.053
	c-0.522-0.178-0.803-0.745-0.626-1.269c0.222-0.654,0.474-1.303,0.748-1.929c0.222-0.505,0.808-0.738,1.317-0.514
	c0.506,0.222,0.736,0.812,0.515,1.317C15.812,20.356,15.581,20.952,15.378,21.551z M16.514,41.299
	c0.459-0.31,1.079-0.188,1.389,0.269c0.357,0.528,0.737,1.039,1.129,1.516c0.35,0.427,0.288,1.057-0.14,1.408
	c-0.186,0.152-0.41,0.227-0.633,0.227c-0.29,0-0.576-0.125-0.774-0.366c-0.431-0.525-0.847-1.085-1.238-1.664
	C15.937,42.23,16.057,41.608,16.514,41.299z M2.5,29c0-0.674,0.036-1.338,0.078-2h3.987c-0.001,0.016-0.001,0.032-0.002,0.048
	C6.526,27.694,6.5,28.343,6.5,29c0,0.335,0.012,0.667,0.022,1H2.539C2.528,29.666,2.5,29.337,2.5,29z M6.636,32
	c0.038,0.421,0.087,0.838,0.141,1.254c0.004,0.031,0.006,0.062,0.01,0.093C6.861,33.904,6.951,34.454,7.052,35H3.108
	c-0.195-0.982-0.349-1.981-0.448-3H6.636z M7.256,22c-0.026,0.118-0.048,0.238-0.073,0.357c-0.027,0.131-0.055,0.262-0.08,0.394
	c-0.122,0.628-0.23,1.26-0.316,1.902c-0.004,0.031-0.006,0.062-0.01,0.093C6.766,24.83,6.759,24.916,6.748,25H2.779
	c0.132-1.018,0.299-2.022,0.528-3H7.256z M7.495,37c0.031,0.122,0.06,0.246,0.092,0.367c0.012,0.044,0.021,0.09,0.033,0.134
	c0.165,0.609,0.35,1.208,0.548,1.8c0.042,0.125,0.086,0.248,0.129,0.371C8.335,39.782,8.372,39.892,8.411,40H4.558
	c-0.379-0.971-0.705-1.973-0.983-3H7.495z M20.265,13.549c-0.438,0.441-0.861,0.913-1.261,1.401
	c-0.197,0.242-0.485,0.367-0.775,0.367c-0.222,0-0.446-0.074-0.632-0.226c-0.428-0.35-0.491-0.979-0.142-1.407
	c0.439-0.538,0.907-1.058,1.39-1.544c0.39-0.393,1.022-0.394,1.414-0.006C20.651,12.523,20.653,13.157,20.265,13.549z M21.433,2.618
	c-0.326,0.17-0.649,0.347-0.968,0.532c-0.184,0.106-0.369,0.21-0.55,0.321C19.639,3.64,19.369,3.819,19.1,4h-1.925
	c1.462-0.684,2.988-1.223,4.578-1.558C21.644,2.496,21.541,2.562,21.433,2.618z M13.732,6h2.763
	c-0.248,0.217-0.496,0.435-0.736,0.661c-0.202,0.19-0.398,0.388-0.594,0.586c-0.197,0.198-0.392,0.399-0.584,0.604
	c-0.185,0.198-0.371,0.394-0.552,0.598C13.869,8.629,13.716,8.815,13.561,9h-3.302C11.333,7.883,12.492,6.876,13.732,6z M9.324,48
	h3.432c0.113,0.148,0.225,0.296,0.341,0.442c0.302,0.379,0.612,0.749,0.931,1.109c0.18,0.204,0.366,0.4,0.552,0.598
	c0.192,0.205,0.387,0.406,0.584,0.604c0.081,0.081,0.157,0.167,0.239,0.247h-3.008C11.297,50.101,10.27,49.097,9.324,48z
	 M21.753,55.558c-2.293-0.483-4.46-1.369-6.469-2.558h2.419c0.127,0.098,0.258,0.19,0.386,0.286c0.209,0.155,0.417,0.311,0.63,0.46
	c0.392,0.273,0.791,0.535,1.196,0.784c0.181,0.111,0.366,0.214,0.55,0.321c0.319,0.185,0.642,0.362,0.968,0.532
	C21.541,55.438,21.644,55.504,21.753,55.558z M40.168,49.533c-0.622,0.319-1.267,0.605-1.915,0.849
	c-0.116,0.044-0.235,0.065-0.353,0.065c-0.404,0-0.785-0.247-0.936-0.648c-0.195-0.517,0.066-1.094,0.583-1.288
	c0.577-0.218,1.151-0.473,1.706-0.757c0.493-0.253,1.096-0.059,1.347,0.433C40.853,48.678,40.659,49.281,40.168,49.533z
	 M42.53,20.452h-1.987c-0.128,0-0.266,0.03-0.399,0.254l-6.24,9.752l3.558,0.006c0.605,0,0.997,0.392,0.997,0.997
	s-0.392,0.997-0.997,0.997h-4.141l0.003,1.01l4.138-0.003c0.605,0,0.997,0.391,0.997,0.996s-0.392,0.997-0.997,0.997h-4.141
	l0.003,4.01l2.316-0.004c0.605,0,0.997,0.392,0.997,0.997s-0.392,0.997-0.997,0.997h-6.625c-0.605,0-0.997-0.392-0.997-0.997
	s0.391-0.997,0.997-0.997h2.319l-0.003-4.009l-4.138,0.003c-0.605,0-0.997-0.392-0.997-0.997s0.392-0.996,0.997-0.996h4.141
	l-0.003-1.011l-4.138,0.004c-0.605,0-0.997-0.392-0.997-0.997s0.392-0.997,0.997-0.997h3.519l-6.238-9.765
	c-0.129-0.217-0.267-0.247-0.395-0.247h-1.988c-0.605,0-0.997-0.392-0.997-0.997s0.391-0.997,0.997-0.997h6.294
	c0.605,0,0.997,0.392,0.997,0.997s-0.392,0.997-0.997,0.997h-1.743l5.652,8.676l5.681-8.673l-1.739-0.003
	c-0.605,0-0.997-0.392-0.997-0.997s0.392-0.997,0.997-0.997h6.294c0.605,0,0.997,0.392,0.997,0.997S43.135,20.452,42.53,20.452z
	 M46.573,44.281c-0.439,0.54-0.906,1.061-1.387,1.547c-0.195,0.198-0.453,0.297-0.711,0.297c-0.254,0-0.508-0.096-0.703-0.289
	c-0.393-0.389-0.396-1.021-0.008-1.415c0.436-0.44,0.858-0.913,1.258-1.403c0.348-0.427,0.979-0.493,1.406-0.145
	C46.857,43.222,46.922,43.852,46.573,44.281z M46.902,16.837c-0.32,0-0.636-0.154-0.829-0.439c-0.352-0.52-0.732-1.028-1.131-1.513
	c-0.351-0.426-0.289-1.057,0.137-1.408c0.428-0.351,1.057-0.289,1.408,0.137c0.438,0.532,0.855,1.091,1.242,1.662
	c0.31,0.457,0.189,1.079-0.268,1.389C47.29,16.781,47.096,16.837,46.902,16.837z M50.53,37.049c-0.22,0.652-0.47,1.301-0.743,1.93
	c-0.164,0.376-0.531,0.601-0.918,0.601c-0.133,0-0.269-0.027-0.398-0.083c-0.506-0.221-0.738-0.81-0.518-1.316
	c0.251-0.577,0.48-1.172,0.683-1.77c0.176-0.523,0.742-0.807,1.267-0.628C50.426,35.958,50.707,36.526,50.53,37.049z M51.757,30.993
	c-0.041,0.524-0.479,0.923-0.996,0.923c-0.025,0-0.052-0.001-0.078-0.003c-0.551-0.042-0.963-0.523-0.92-1.074
	c0.047-0.603,0.07-1.221,0.07-1.838c0-0.552,0.447-1.032,1-1.032s1,0.415,1,0.967V29C51.833,29.668,51.808,30.339,51.757,30.993z"/>
<g>
</g>
<g>
</g>
<g>
</g>
<g>
</g>
<g>
</g>
<g>
</g>
<g>
</g>
<g>
</g>
<g>
</g>
<g>
</g>
<g>
</g>
<g>
</g>
<g>
</g>
<g>
</g>
<g>
</g>
</svg>
